<?xml version="1.0" standalone="no"?><!DOCTYPE svg PUBLIC "-//W3C//DTD SVG 1.1//EN" "http://www.w3.org/Graphics/SVG/1.1/DTD/svg11.dtd"><svg t="1748757223739" class="icon" viewBox="0 0 1024 1024" version="1.1" xmlns="http://www.w3.org/2000/svg" p-id="5756" xmlns:xlink="http://www.w3.org/1999/xlink" width="200" height="200"><path d="M20.466416 321.431649v517.430718A86.224232 86.224232 0 0 0 106.690647 925.086599h101.924637l56.44466 89.381378a20.39346 20.39346 0 0 0 17.236313 9.386112 20.39346 20.39346 0 0 0 18.814887-9.386112l56.444661-89.381378h297.923706l56.44466 89.381378a20.39346 20.39346 0 0 0 18.772223 9.386112c7.892866 0 14.164495-3.114482 17.278977-9.386112l56.444661-89.381378H917.309353a86.224232 86.224232 0 0 0 86.266895-86.224232V321.431649A86.224232 86.224232 0 0 0 917.309353 236.743326h-327.660614l189.684777-189.727441L732.317631 0l-219.549676 219.507013L290.14646 0 243.087911 47.058549l188.148867 188.148868h-322.967557A86.224232 86.224232 0 0 0 20.466416 322.967558z" p-id="5757"></path></svg>